<svg xmlns="http://www.w3.org/2000/svg" width="12px" height="12px" fill="currentColor" viewBox="0 0 20 20">
  <g clip-path="url(#clip0_6766_653)">
    <path d="M17.784 10a7.784 7.784 0 11-15.568 0 7.784 7.784 0 0115.568 0z" fill="#fff"></path>
    <path
      d="M13.27 14.587l1.64-7.734c.146-.68-.245-.949-.691-.782L4.576 9.788c-.659.256-.647.625-.112.792l2.467.77 5.725-3.605c.268-.179.514-.078.313.1l-4.631 4.186-.179 2.545c.257 0 .369-.112.502-.246l1.205-1.16 2.5 1.84c.458.257.782.124.905-.424l-.001.001zM20 10c0 5.524-4.476 10-10 10S0 15.524 0 10 4.476 0 10 0s10 4.476 10 10z"
      fill="#57A6DE"></path>
  </g>
  <defs>
    <clipPath id="clip0_6766_653">
      <rect width="20" height="20" fill="#fff"></rect>
    </clipPath>
  </defs>
</svg>