<svg xmlns="http://www.w3.org/2000/svg" width="16px" height="16px" fill="#5C6068" viewBox="0 0 16 16">
  <path fill-rule="evenodd" clip-rule="evenodd"
    d="M2.702 3.225l.006.006 3.635 3.547c.355.346.554.82.554 1.315v3.898a.6.6 0 11-1.2 0V8.093a.636.636 0 00-.192-.456L1.87 4.09C1.088 3.327 1.628 2 2.72 2h10.562c1.093 0 1.633 1.328.85 2.09l-3.64 3.547a.636.636 0 00-.191.456v5.634a.6.6 0 01-1.2 0V8.093c0-.495.2-.97.554-1.315l3.64-3.547.005-.006.001-.002-.002-.012a.03.03 0 00-.007-.01h-.002l-.008-.001H2.71a.03.03 0 00-.006.011.03.03 0 00-.003.012l.001.002z">
  </path>
</svg>