<svg xmlns="http://www.w3.org/2000/svg" width="12px" height="12px" fill="currentColor" viewBox="0 0 12 12"><path d="M1.7 8.197c.063-.063.15-.1.242-.1h8.35c.152 0 .229.184.12.292l-1.649 1.65a.342.342 0 01-.242.1H.171a.171.171 0 01-.12-.293L1.7 8.196z"></path><path d="M1.7 2.04a.352.352 0 01.242-.1h8.35c.152 0 .229.184.12.292l-1.649 1.65a.342.342 0 01-.242.1H.171a.171.171 0 01-.12-.293L1.7 2.04z"></path><path d="M8.763 5.1a.342.342 0 00-.242-.1H.171a.171.171 0 00-.12.293L1.7 6.942c.063.063.15.1.242.1h8.35a.171.171 0 00.12-.292L8.764 5.1z"></path></svg>
